<svg id="visual" viewBox="0 0 1920 1080" width="1920" height="1080" xmlns="http://www.w3.org/2000/svg" xmlns:xlink="http://www.w3.org/1999/xlink" version="1.1"><rect x="0" y="0" width="1920" height="1080" fill="#00070c"></rect><path d="M0 773L45.7 760.3C91.3 747.7 182.7 722.3 274.2 707.7C365.7 693 457.3 689 548.8 691.8C640.3 694.7 731.7 704.3 823 718.8C914.3 733.3 1005.7 752.7 1097 758.8C1188.3 765 1279.7 758 1371.2 747.8C1462.7 737.7 1554.3 724.3 1645.8 705.5C1737.3 686.7 1828.7 662.3 1874.3 650.2L1920 638L1920 1081L1874.3 1081C1828.7 1081 1737.3 1081 1645.8 1081C1554.3 1081 1462.7 1081 1371.2 1081C1279.7 1081 1188.3 1081 1097 1081C1005.7 1081 914.3 1081 823 1081C731.7 1081 640.3 1081 548.8 1081C457.3 1081 365.7 1081 274.2 1081C182.7 1081 91.3 1081 45.7 1081L0 1081Z" fill="#220055"></path><path d="M0 828L45.7 821.2C91.3 814.3 182.7 800.7 274.2 791C365.7 781.3 457.3 775.7 548.8 767.3C640.3 759 731.7 748 823 747.3C914.3 746.7 1005.7 756.3 1097 773.5C1188.3 790.7 1279.7 815.3 1371.2 831.8C1462.7 848.3 1554.3 856.7 1645.8 841.7C1737.3 826.7 1828.7 788.3 1874.3 769.2L1920 750L1920 1081L1874.3 1081C1828.7 1081 1737.3 1081 1645.8 1081C1554.3 1081 1462.7 1081 1371.2 1081C1279.7 1081 1188.3 1081 1097 1081C1005.7 1081 914.3 1081 823 1081C731.7 1081 640.3 1081 548.8 1081C457.3 1081 365.7 1081 274.2 1081C182.7 1081 91.3 1081 45.7 1081L0 1081Z" fill="#33007c"></path><path d="M0 787L45.7 805.3C91.3 823.7 182.7 860.3 274.2 873.8C365.7 887.3 457.3 877.7 548.8 873.3C640.3 869 731.7 870 823 859.2C914.3 848.3 1005.7 825.7 1097 825.7C1188.3 825.7 1279.7 848.3 1371.2 862C1462.7 875.7 1554.3 880.3 1645.8 876.8C1737.3 873.3 1828.7 861.7 1874.3 855.8L1920 850L1920 1081L1874.3 1081C1828.7 1081 1737.3 1081 1645.8 1081C1554.3 1081 1462.7 1081 1371.2 1081C1279.7 1081 1188.3 1081 1097 1081C1005.7 1081 914.3 1081 823 1081C731.7 1081 640.3 1081 548.8 1081C457.3 1081 365.7 1081 274.2 1081C182.7 1081 91.3 1081 45.7 1081L0 1081Z" fill="#4400a6"></path><path d="M0 970L45.7 952.7C91.3 935.3 182.7 900.7 274.2 893.2C365.7 885.7 457.3 905.3 548.8 911.8C640.3 918.3 731.7 911.7 823 909.5C914.3 907.3 1005.7 909.7 1097 918.5C1188.3 927.3 1279.7 942.7 1371.2 953.7C1462.7 964.7 1554.3 971.3 1645.8 957.8C1737.3 944.3 1828.7 910.7 1874.3 893.8L1920 877L1920 1081L1874.3 1081C1828.7 1081 1737.3 1081 1645.8 1081C1554.3 1081 1462.7 1081 1371.2 1081C1279.7 1081 1188.3 1081 1097 1081C1005.7 1081 914.3 1081 823 1081C731.7 1081 640.3 1081 548.8 1081C457.3 1081 365.7 1081 274.2 1081C182.7 1081 91.3 1081 45.7 1081L0 1081Z" fill="#5500d2"></path><path d="M0 944L45.7 958.7C91.3 973.3 182.7 1002.7 274.2 1009.5C365.7 1016.3 457.3 1000.7 548.8 990.3C640.3 980 731.7 975 823 979.7C914.3 984.3 1005.7 998.7 1097 1004.8C1188.3 1011 1279.7 1009 1371.2 1004.2C1462.7 999.3 1554.3 991.7 1645.8 985C1737.3 978.3 1828.7 972.7 1874.3 969.8L1920 967L1920 1081L1874.3 1081C1828.7 1081 1737.3 1081 1645.8 1081C1554.3 1081 1462.7 1081 1371.2 1081C1279.7 1081 1188.3 1081 1097 1081C1005.7 1081 914.3 1081 823 1081C731.7 1081 640.3 1081 548.8 1081C457.3 1081 365.7 1081 274.2 1081C182.7 1081 91.3 1081 45.7 1081L0 1081Z" fill="#6600ff"></path></svg>